<svg width="19" height="18" fill="none" xmlns="http://www.w3.org/2000/svg"><path d="M0 5.922c0 4.176 3.415 8.284 8.811 11.813.201.128.488.265.689.265.2 0 .488-.137.698-.265C15.585 14.205 19 10.098 19 5.922 19 2.45 16.675 0 13.575 0c-1.77 0-3.204.863-4.075 2.186C8.649.873 7.194 0 5.424 0 2.324 0 0 2.451 0 5.922zm1.54 0c0-2.608 1.646-4.344 3.865-4.344 1.799 0 2.832 1.147 3.444 2.128.259.392.421.5.651.5.23 0 .373-.118.65-.5.66-.96 1.656-2.128 3.445-2.128 2.22 0 3.865 1.736 3.865 4.344 0 3.647-3.76 7.578-7.76 10.304-.095.068-.162.117-.2.117-.038 0-.105-.049-.191-.117C5.3 13.5 1.54 9.569 1.54 5.921z" fill="#212121"/></svg>