<svg width="24" height="20" fill="none" xmlns="http://www.w3.org/2000/svg"><path d="M8.454 15.056H20.59a.76.76 0 00.76-.763.76.76 0 00-.76-.763H8.631c-.593 0-.957-.407-1.05-1.027l-.167-1.069H20.61c1.518 0 2.298-.915 2.517-2.37l.831-5.381c.021-.133.042-.295.042-.387 0-.488-.374-.824-.946-.824H6.073L5.875 1.18C5.771.397 5.48 0 4.42 0H.77A.782.782 0 000 .763c0 .417.354.773.77.773h3.514l1.664 11.17c.218 1.445.998 2.35 2.506 2.35zM22.232 4.008l-.738 4.873c-.083.63-.426 1.017-1.04 1.017l-13.269.01-.883-5.9h15.93zM9.276 20c.935 0 1.684-.722 1.684-1.648 0-.916-.749-1.648-1.684-1.648-.947 0-1.695.732-1.695 1.648 0 .926.748 1.648 1.695 1.648zm9.722 0c.947 0 1.695-.722 1.695-1.648 0-.916-.748-1.648-1.695-1.648-.936 0-1.695.732-1.695 1.648 0 .926.76 1.648 1.695 1.648z" fill="#111"/></svg>