<svg width="21" height="18" fill="none" xmlns="http://www.w3.org/2000/svg"><path d="M14.236 5.084c1.084 0 2.001-.708 2.356-1.68h3.606c.427 0 .802-.381.802-.857 0-.475-.375-.845-.802-.845h-3.606C16.248.719 15.32 0 14.236 0c-1.084 0-2.022.719-2.366 1.702H.835A.829.829 0 000 2.547c0 .476.365.856.834.856H11.88a2.514 2.514 0 002.355 1.681zm0-1.3c-.688 0-1.22-.55-1.22-1.247 0-.698.532-1.237 1.22-1.237s1.22.54 1.22 1.237c0 .697-.532 1.247-1.22 1.247zM.792 8.149c-.427 0-.792.38-.792.856s.365.846.792.846h3.731c.344.993 1.272 1.702 2.355 1.702 1.084 0 2.012-.709 2.366-1.702h10.912c.469 0 .844-.37.844-.846a.847.847 0 00-.844-.856H9.234a2.514 2.514 0 00-2.356-1.68 2.514 2.514 0 00-2.355 1.68H.793zm6.086 2.093c-.677 0-1.219-.55-1.219-1.237 0-.697.542-1.236 1.22-1.236.687 0 1.219.539 1.219 1.236 0 .687-.532 1.237-1.22 1.237zM14.236 18c1.084 0 2.012-.708 2.356-1.691h3.606c.427 0 .802-.37.802-.846 0-.475-.375-.856-.802-.856h-3.606a2.5 2.5 0 00-2.356-1.68 2.5 2.5 0 00-2.355 1.68H.834a.838.838 0 00-.834.856.83.83 0 00.834.846H11.87c.355.983 1.282 1.691 2.366 1.691zm0-1.3c-.688 0-1.22-.55-1.22-1.237 0-.708.532-1.236 1.22-1.236s1.22.528 1.22 1.236c0 .687-.532 1.237-1.22 1.237z" fill="#212121"/></svg>