<svg width="15" height="18" fill="none" xmlns="http://www.w3.org/2000/svg"><path d="M7.507 11.638a.683.683 0 00.681-.674V3.596l-.05-1.084.446.535 1.025 1.091a.605.605 0 00.454.198c.337 0 .616-.242.616-.586a.588.588 0 00-.198-.44L8.027.946C7.852.769 7.683.71 7.507.71c-.183 0-.344.059-.52.235L4.527 3.31a.588.588 0 00-.198.439c0 .344.27.586.608.586a.62.62 0 00.46-.198l1.026-1.091.454-.542-.058 1.091v7.368c0 .367.307.674.688.674zM3.281 17.49h8.438c1.59 0 2.41-.82 2.41-2.387v-7.2c0-1.568-.82-2.388-2.41-2.388H9.74v1.458h1.883c.666 0 1.047.351 1.047 1.054v6.944c0 .703-.381 1.054-1.047 1.054H3.376c-.673 0-1.047-.351-1.047-1.054V8.027c0-.703.374-1.054 1.047-1.054h1.905V5.515h-2c-1.582 0-2.41.813-2.41 2.388v7.2c0 1.567.828 2.387 2.41 2.387z" fill="#000"/></svg>